# xmcd CD database file
#
# Track frame offsets:
#	150
#	20925
#	51075
#	77250
#	93225
#	122175
#	142200
#	168450
#	193050
#	210300
#	231150
#	249675
#
# Disc length: 3848 seconds
#
# Revision: 0
# Processed by: cddbd v1.5.1PL0 Copyright (c) Steve Scherf et al.
# Submitted via: CDex 1.51
#
DISCID=a70f060c
DTITLE=The Latin Bop Quartet - " Por la tarde "
DYEAR=2004
DGENRE=Jazz
TTITLE0=Bolivia
TTITLE1=Del Sasser
TTITLE2=Beatrice
TTITLE3=Têtê á têtê
TTITLE4=Brown´s town
TTITLE5=Por la tarde
TTITLE6=Theme for Ernie
TTITLE7=Amsterdam after dark
TTITLE8=Mamacita
TTITLE9=Yardbird suite
TTITLE10=St. Thomas
TTITLE11=Y todavia la quiero
EXTD=YEAR: 2004
EXTT0=
EXTT1=
EXTT2=
EXTT3=
EXTT4=
EXTT5=
EXTT6=
EXTT7=
EXTT8=
EXTT9=
EXTT10=
EXTT11=
PLAYORDER=
